<svg xmlns="http://www.w3.org/2000/svg" viewBox="0 0 24 24"><defs><style>.ec32d696-45f7-444c-b286-d5aa18784068{fill:#222e50;}</style></defs><g id="e49e778c-a894-4a2c-8e0e-a98f3f49db62" data-name="Layer 2"><g id="abf4c858-3d17-404f-84ca-ec33499c23b7" data-name="iconmonstr"><path id="a7939436-4f9b-4747-8b85-0f7a04837561" data-name="linkedin-3" class="ec32d696-45f7-444c-b286-d5aa18784068" d="M19,0H5A5,5,0,0,0,0,5V19a5,5,0,0,0,5,5H19a5,5,0,0,0,5-5V5A5,5,0,0,0,19,0ZM8,19H5V8H8ZM6.5,6.73A1.77,1.77,0,1,1,8.25,5,1.75,1.75,0,0,1,6.5,6.73ZM20,19H17V13.4c0-3.37-4-3.12-4,0V19H10V8h3V9.77c1.4-2.59,7-2.78,7,2.47Z"/></g></g></svg>